# xmcd
#
# Track frame offsets: 
#        150
#        18740
#        34450
#        50907
#        67985
#        87435
#        109042
#        120397
#        144592
#        162237
#        181655
#        201140
#
# Disc length: 2908 seconds
#
# Revision: 2
# Processed by: cddbd v1.5.2PL0 Copyright (c) Steve Scherf et al.
# Submitted via: ExactAudioCopy v0.95b3
#
DISCID=a70b5a0c
DTITLE=John Littlejohn - Slidin' Home
DYEAR=1969
DGENRE=Blues
TTITLE0=What In The World You Goin' To Do
TTITLE1=Treat Me Wrong
TTITLE2=Catfish Blues
TTITLE3=Kiddeo
TTITLE4=Slidin' Home
TTITLE5=Dream
TTITLE6=Reelin' and Rockin'
TTITLE7=Been Around The World
TTITLE8=How Much More Long
TTITLE9=Shake Your Money Maker
TTITLE10=I'm Tired
TTITLE11=Nowhere To Lay My Head
EXTD=
EXTT0=
EXTT1=
EXTT2=
EXTT3=
EXTT4=
EXTT5=
EXTT6=
EXTT7=
EXTT8=
EXTT9=
EXTT10=
EXTT11=
PLAYORDER=
